<svg 
 xmlns="http://www.w3.org/2000/svg"
 xmlns:xlink="http://www.w3.org/1999/xlink"
 viewBox="0 0 30.000000 30.000000"  width="30px" height="30px">
<defs>
<filter id="Filter_0">
    <feFlood flood-color="rgb(255, 255, 255)" flood-opacity="1" result="floodOut" />
    <feComposite operator="atop" in="floodOut" in2="SourceGraphic" result="compOut" />
    <feBlend mode="normal" in="compOut" in2="SourceGraphic" />
</filter>

</defs>
<g filter="url(#Filter_0)">
<path fill-rule="evenodd" fill="rgb(0, 0, 0)"
 d="M19.485,19.175 L12.457,15.661 C12.482,15.375 12.496,15.153 12.496,14.997 C12.496,14.841 12.482,14.620 12.457,14.333 L19.485,10.819 C20.683,11.938 22.102,12.498 23.742,12.498 C25.473,12.498 26.947,11.890 28.164,10.672 C29.381,9.455 29.990,7.981 29.990,6.250 C29.990,4.519 29.381,3.045 28.164,1.828 C26.947,0.611 25.473,0.002 23.742,0.002 C22.010,0.002 20.536,0.611 19.319,1.828 C18.102,3.045 17.494,4.519 17.494,6.250 C17.494,6.406 17.507,6.628 17.533,6.914 L10.504,10.428 C9.306,9.309 7.888,8.749 6.248,8.749 C4.516,8.749 3.042,9.358 1.825,10.575 C0.608,11.792 -0.000,13.266 -0.000,14.997 C-0.000,16.728 0.608,18.203 1.825,19.419 C3.042,20.636 4.516,21.245 6.248,21.245 C7.888,21.245 9.306,20.685 10.504,19.566 L17.533,23.080 C17.507,23.367 17.494,23.588 17.494,23.744 C17.494,25.475 18.102,26.949 19.319,28.166 C20.536,29.383 22.010,29.992 23.742,29.992 C25.473,29.992 26.947,29.383 28.164,28.166 C29.381,26.949 29.990,25.475 29.990,23.744 C29.990,22.013 29.381,20.539 28.164,19.322 C26.947,18.105 25.473,17.496 23.742,17.496 C22.102,17.496 20.683,18.056 19.485,19.175 L19.485,19.175 Z"/>
</g>
</svg>