<svg xmlns="http://www.w3.org/2000/svg" viewBox="0 0 60.000000 61.000000" fill="#333">
  <path id="soybean_копия" data-name="soybean копия" class="cls-1" d="M29.892,0.009a29.813,29.813,0,0,1,29.744,30.14C59.459,47.1,46.32,60.019,30.021,60.121A29.966,29.966,0,0,1,.121,30.089C0.205,13.316,13.283.025,29.892,0.009ZM29.861,57.84A27.608,27.608,0,0,0,57.388,30.283,27.721,27.721,0,0,0,30,2.181C15.056,2.075,2.563,14.574,2.254,29.442,1.94,44.591,14.494,58.149,29.861,57.84ZM47.528,38.355a13.577,13.577,0,0,0-.365,2.435,6.359,6.359,0,0,0,.492,2.613,2.9,2.9,0,0,1-.433,3.7c-1.377,1.442-2.584,1.661-4.046,1.024a5.154,5.154,0,0,0-2.873-.442A9.5,9.5,0,0,1,29.19,41.5a3.526,3.526,0,0,0-2.421-2.47,8.507,8.507,0,0,1-5.8-5.92,3.307,3.307,0,0,0-2.325-2.337c-4.994-1.864-7.225-6.213-6.145-11.449a3.98,3.98,0,0,0-.444-2.587,2.909,2.909,0,0,1,.614-3.968c1.128-1.126,2.283-1.7,3.907-.768a4.048,4.048,0,0,0,2.715.45A9.639,9.639,0,0,1,30.64,18.757a4.048,4.048,0,0,0,2.184,2.195,9.441,9.441,0,0,1,5.948,6.061A3.21,3.21,0,0,0,41.1,29.318,9.325,9.325,0,0,1,47.528,38.355Zm-1.4,6.92-0.723-.188c-0.144-1.5-.673-3.1-0.359-4.5,0.964-4.3-.963-8.024-5.126-9.272a4.17,4.17,0,0,1-3.08-3.075,7.042,7.042,0,0,0-5.025-5.189A4.76,4.76,0,0,1,28.525,19.7c-1.288-3.959-4.655-5.968-8.637-5.064a5.075,5.075,0,0,1-4.347-.491,1.237,1.237,0,0,0-1.167.195,1.3,1.3,0,0,0-.311,1.164c1.091,1.5.923,3.034,0.541,4.73a6.963,6.963,0,0,0,4.742,8.361,5.177,5.177,0,0,1,3.709,3.828A6.245,6.245,0,0,0,27.446,36.9a5.2,5.2,0,0,1,3.81,3.722,7.021,7.021,0,0,0,8.473,4.838c1.816-.418,3.466-0.452,5,0.944Zm-16.2-20.356a5.04,5.04,0,0,1,5.04,5.241,5.184,5.184,0,0,1-5.109,5.06,5.052,5.052,0,0,1-5.074-5.214A4.963,4.963,0,0,1,29.929,24.919ZM29.771,27.08a2.974,2.974,0,0,0,.151,5.943,3.125,3.125,0,0,0,2.786-3.063A2.957,2.957,0,0,0,29.771,27.08Zm3.18,11.187a4.889,4.889,0,0,1,5.061-5.119,5.148,5.148,0,0,1,5.147,5.144,5.238,5.238,0,0,1-5.176,5.145A4.984,4.984,0,0,1,32.951,38.267Zm5.134-3a3.234,3.234,0,0,0-3.025,2.879,3.2,3.2,0,0,0,2.806,3.093,2.946,2.946,0,0,0,2.957-2.868A3,3,0,0,0,38.085,35.272ZM16.738,21.838a5.106,5.106,0,1,1,5.048,5.224A5.035,5.035,0,0,1,16.738,21.838ZM18.9,21.926a3.067,3.067,0,0,0,2.9,2.98,2.964,2.964,0,0,0,.04-5.927A3.134,3.134,0,0,0,18.9,21.926Z" transform="translate(-0.125)"/>
</svg>
