<svg 
    xmlns="http://www.w3.org/2000/svg"
    xmlns:xlink="http://www.w3.org/1999/xlink"
    viewBox="0 0 60.000000 60.000000" fill="#333">
    <path fill-rule="evenodd"
    d="M30.051,60.369 C13.841,60.434 0.570,46.807 0.577,30.270 C0.584,13.497 13.766,0.203 30.383,0.211 C46.764,0.218 60.111,13.693 59.986,30.337 C59.861,46.990 46.692,60.301 30.051,60.369 ZM30.282,2.385 C15.136,2.368 2.671,14.983 2.700,30.300 C2.729,45.630 15.056,58.065 30.201,58.043 C45.383,58.294 57.835,45.633 57.838,30.169 C57.842,14.998 45.360,2.403 30.282,2.385 ZM35.082,43.131 C32.478,40.592 32.658,35.852 35.565,33.112 C38.050,30.769 41.225,29.820 44.446,29.195 C46.331,28.829 47.464,30.472 47.352,34.186 C47.233,36.265 46.690,39.426 44.565,41.977 C41.949,45.116 37.582,45.569 35.082,43.131 ZM44.963,31.483 C41.775,31.884 38.824,32.880 36.559,35.409 C36.108,35.913 35.816,36.620 35.612,37.284 C34.704,40.246 36.521,42.509 39.549,42.293 C41.509,42.154 42.988,41.095 43.622,39.380 C44.506,36.989 44.970,34.439 45.614,31.958 C45.397,31.800 45.180,31.642 44.963,31.483 ZM27.905,31.438 C24.885,30.087 23.075,25.925 24.361,22.368 C25.231,19.964 26.607,17.719 27.967,15.538 C28.857,14.110 31.113,13.891 32.121,15.067 C34.529,17.875 36.311,21.023 36.528,24.140 C36.502,29.784 31.956,33.250 27.905,31.438 ZM30.064,16.488 C28.068,19.111 26.132,21.732 26.249,25.281 C26.318,27.405 28.044,29.448 29.872,29.713 C31.544,29.955 33.369,28.501 34.049,26.382 C34.929,23.643 33.009,18.749 30.064,16.488 ZM26.710,41.203 C25.870,43.299 24.134,44.421 21.909,44.468 C18.793,44.535 16.245,43.287 14.974,40.314 C14.039,38.129 13.517,35.762 12.811,33.476 C12.881,29.623 14.365,28.257 17.854,29.523 C20.384,30.442 22.970,31.609 25.053,33.278 C27.505,35.244 27.898,38.241 26.710,41.203 ZM23.698,35.068 C21.601,32.651 18.694,31.803 15.250,31.280 C15.516,35.012 15.595,38.460 18.273,41.044 C19.580,42.306 21.304,42.702 22.990,41.984 C24.443,41.365 25.291,40.018 25.041,38.408 C24.859,37.241 24.445,35.929 23.698,35.068 Z"/>
</svg>