<svg 
 xmlns="http://www.w3.org/2000/svg"
 xmlns:xlink="http://www.w3.org/1999/xlink"
 viewBox="0 0 29.000000 30.000000" width="29px" height="30px">
<defs>
<filter id="Filter_0">
    <feFlood flood-color="rgb(244, 244, 244)" flood-opacity="1" result="floodOut" />
    <feComposite operator="atop" in="floodOut" in2="SourceGraphic" result="compOut" />
    <feBlend mode="normal" in="compOut" in2="SourceGraphic" />
</filter>

</defs>
<g filter="url(#Filter_0)">
<path fill-rule="evenodd"  fill="rgb(0, 0, 0)"
 d="M13.348,13.162 C13.647,12.778 14.010,12.409 14.438,12.054 C14.866,11.700 15.291,11.310 15.712,10.883 C16.134,10.457 16.494,9.899 16.794,9.208 C17.093,8.517 17.243,7.740 17.243,6.875 C17.243,5.794 17.011,4.833 16.546,3.992 C16.082,3.152 15.397,2.353 14.493,1.596 L16.895,1.596 L19.424,0.011 L11.762,0.011 C10.393,0.011 9.064,0.203 7.775,0.587 C6.485,0.972 5.370,1.560 4.429,2.353 C3.659,3.001 3.054,3.788 2.615,4.713 C2.175,5.638 1.955,6.593 1.955,7.577 C1.955,9.355 2.575,10.823 3.815,11.982 C5.055,13.142 6.580,13.721 8.389,13.721 C8.658,13.721 9.073,13.697 9.635,13.649 C9.379,14.237 9.250,14.748 9.250,15.180 C9.250,15.673 9.345,16.111 9.535,16.495 C9.724,16.880 10.014,17.324 10.405,17.828 C7.069,18.044 4.600,18.645 3.000,19.630 C2.095,20.182 1.371,20.873 0.827,21.702 C0.283,22.530 0.011,23.431 0.011,24.404 C0.011,25.257 0.238,26.043 0.690,26.764 C1.386,27.917 2.434,28.743 3.834,29.241 C5.233,29.740 6.739,29.989 8.352,29.989 C10.295,29.989 12.116,29.643 13.815,28.953 C15.513,28.262 16.803,27.185 17.683,25.719 C18.269,24.722 18.563,23.683 18.563,22.602 C18.563,21.666 18.367,20.813 17.976,20.044 C17.585,19.276 17.115,18.651 16.565,18.171 C16.015,17.690 15.462,17.249 14.906,16.847 C14.349,16.444 13.876,16.036 13.485,15.621 C13.094,15.207 12.898,14.784 12.898,14.351 C12.898,13.943 13.048,13.547 13.348,13.162 ZM8.453,12.153 C7.909,11.841 7.451,11.439 7.078,10.946 C6.705,10.454 6.388,9.899 6.125,9.280 C5.862,8.661 5.670,8.043 5.548,7.424 C5.425,6.806 5.364,6.220 5.364,5.668 C5.364,4.455 5.651,3.494 6.226,2.785 C6.531,2.389 6.932,2.074 7.426,1.840 C7.921,1.605 8.426,1.488 8.939,1.488 C9.721,1.488 10.436,1.734 11.084,2.227 C11.731,2.720 12.248,3.341 12.633,4.091 C13.017,4.842 13.314,5.620 13.522,6.424 C13.729,7.229 13.833,7.980 13.833,8.676 C13.833,9.901 13.509,10.856 12.862,11.541 C12.544,11.865 12.141,12.126 11.652,12.325 C11.163,12.523 10.686,12.622 10.222,12.622 C9.586,12.622 8.997,12.466 8.453,12.153 ZM7.921,28.088 C7.158,27.914 6.430,27.650 5.740,27.295 C5.049,26.941 4.490,26.443 4.063,25.800 C3.635,25.158 3.421,24.416 3.421,23.575 C3.421,22.867 3.586,22.233 3.916,21.675 C4.246,21.116 4.665,20.669 5.172,20.333 C5.679,19.996 6.272,19.720 6.950,19.504 C7.628,19.288 8.285,19.138 8.920,19.053 C9.556,18.970 10.197,18.927 10.845,18.927 C11.236,18.927 11.530,18.939 11.725,18.963 C11.762,18.987 11.985,19.143 12.394,19.432 C12.804,19.720 13.057,19.900 13.155,19.972 C13.253,20.044 13.476,20.219 13.824,20.495 C14.172,20.771 14.408,20.978 14.530,21.116 C14.652,21.254 14.832,21.465 15.071,21.747 C15.309,22.029 15.474,22.278 15.566,22.494 C15.657,22.711 15.746,22.963 15.831,23.251 C15.917,23.539 15.960,23.834 15.960,24.134 C15.960,24.878 15.792,25.533 15.456,26.097 C15.119,26.662 14.673,27.100 14.117,27.413 C13.561,27.725 12.956,27.959 12.303,28.115 C11.649,28.271 10.967,28.350 10.259,28.350 C9.464,28.350 8.685,28.262 7.921,28.088 ZM25.107,8.658 L23.182,8.658 L23.182,12.568 L19.296,12.568 L19.296,14.513 L23.182,14.513 L23.182,18.459 L25.107,18.459 L25.107,14.513 L29.012,14.513 L29.012,12.568 L25.107,12.568 L25.107,8.658 Z"/>
</g>
</svg>