<?xml version="1.0" standalone="no"?>
<!DOCTYPE svg PUBLIC "-//W3C//DTD SVG 20010904//EN"
 "http://www.w3.org/TR/2001/REC-SVG-20010904/DTD/svg10.dtd">
<svg version="1.0" xmlns="http://www.w3.org/2000/svg" viewBox="0 0 59.000000 59.000000"
 preserveAspectRatio="xMidYMid meet"  width="60px" height="60px">
<g transform="translate(0.000000,59.000000) scale(0.100000,-0.100000)"
fill="#000000" stroke="none">
<path d="M207 576 c-169 -63 -249 -241 -179 -399 67 -150 247 -216 394 -144
105 52 162 144 163 262 0 117 -59 211 -168 266 -53 28 -157 35 -210 15z m198
-30 c212 -98 218 -389 10 -499 -57 -31 -183 -31 -240 0 -100 53 -162 164 -152
273 17 187 215 304 382 226z"/>
<path d="M178 488 c-10 -8 -17 -29 -18 -53 -3 -58 -2 -60 19 -41 16 15 19 15
31 1 12 -14 15 -14 32 2 19 17 20 17 30 0 9 -17 12 -17 32 -3 21 13 25 13 38
-1 14 -14 17 -10 23 36 7 51 20 66 28 34 4 -14 5 -13 6 3 1 28 -6 30 -114 33
-62 2 -95 -2 -107 -11z m178 -24 c-3 -9 -6 -25 -6 -37 0 -16 -3 -18 -12 -9 -9
9 -16 8 -30 -5 -17 -15 -19 -15 -32 3 -14 18 -15 18 -34 1 -17 -16 -20 -16
-32 -2 -10 12 -15 13 -28 3 -13 -11 -15 -10 -9 12 4 14 7 31 7 38 0 9 25 12
91 12 79 0 90 -2 85 -16z"/>
<path d="M374 395 c-13 -30 -19 -71 -22 -163 l-4 -122 -89 0 -89 0 0 104 c0
58 4 116 10 130 5 14 6 26 1 26 -17 0 -21 -32 -21 -151 0 -72 4 -119 10 -119
6 -1 46 -1 90 -1 44 0 103 0 130 1 l50 0 0 118 c0 102 -3 124 -24 167 l-23 50
-19 -40z m45 -54 c6 -19 11 -78 11 -132 l0 -99 -36 0 -36 0 4 113 c4 109 20
180 37 161 5 -5 13 -24 20 -43z"/>
<path d="M394 245 c0 -50 1 -71 3 -48 2 23 2 64 0 90 -2 26 -3 8 -3 -42z"/>
<path d="M210 310 c0 -5 25 -10 55 -10 30 0 55 5 55 10 0 6 -25 10 -55 10 -30
0 -55 -4 -55 -10z"/>
<path d="M238 243 c18 -2 45 -2 60 0 15 2 0 4 -33 4 -33 0 -45 -2 -27 -4z"/>
</g>
</svg>
