<svg 
 xmlns="http://www.w3.org/2000/svg"
 xmlns:xlink="http://www.w3.org/1999/xlink" viewBox="0 0 20.000000 30.000000" width="20px" height="30px">
<defs>
<filter id="Filter_0">
    <feFlood flood-color="rgb(255, 255, 255)" flood-opacity="1" result="floodOut" />
    <feComposite operator="atop" in="floodOut" in2="SourceGraphic" result="compOut" />
    <feBlend mode="normal" in="compOut" in2="SourceGraphic" />
</filter>

</defs>
<g filter="url(#Filter_0)">
<path fill-rule="evenodd"  fill="rgb(0, 0, 0)"
 d="M9.996,14.997 C8.616,14.997 7.439,14.509 6.462,13.533 C5.486,12.557 4.998,11.379 4.998,9.999 C4.998,8.619 5.486,7.441 6.462,6.465 C7.439,5.488 8.616,5.000 9.996,5.000 C11.376,5.000 12.554,5.488 13.530,6.465 C14.506,7.441 14.995,8.619 14.995,9.999 C14.995,11.379 14.506,12.557 13.530,13.533 C12.554,14.509 11.376,14.997 9.996,14.997 ZM17.064,2.931 C15.112,0.978 12.756,0.002 9.996,0.002 C7.237,0.002 4.881,0.978 2.929,2.931 C0.976,4.883 -0.000,7.239 -0.000,9.999 C-0.000,11.417 0.215,12.583 0.644,13.494 L7.771,28.606 C7.966,29.035 8.268,29.373 8.678,29.621 C9.088,29.868 9.528,29.992 9.996,29.992 C10.465,29.992 10.904,29.868 11.314,29.621 C11.724,29.373 12.033,29.035 12.242,28.606 L19.348,13.494 C19.778,12.583 19.993,11.417 19.993,9.999 C19.993,7.239 19.017,4.883 17.064,2.931 Z"/>
</g>
</svg>